<svg width="265" height="94" viewBox="0 0 265 94" fill="none" xmlns="http://www.w3.org/2000/svg">
<path d="M36.7439 41.508C34.8107 39.2534 32.3735 37.7578 29.744 37.2124C27.4234 36.6433 25.0136 37.2287 23.0446 38.8397C21.0756 40.4508 19.7085 42.9557 19.244 45.8037C18.9524 48.0654 19.3187 50.3809 20.2786 52.3444C21.2385 54.3079 22.7308 55.7942 24.494 56.5428C27.679 57.359 30.479 53.6647 33.244 50.0993C36.097 46.265 38.4575 41.9194 40.2439 37.2124C37.6735 42.3661 36.452 48.363 36.7439 54.395C37.0939 57.6597 38.2839 62.6856 40.2439 62.9863C43.3939 63.4588 46.8239 51.5598 47.2439 50.0993" stroke="black" stroke-width="2.5" stroke-miterlimit="10"/>
<path d="M81.408 52.2C81.728 49.832 82.176 47.464 82.816 45.096C83.328 43.112 83.84 41.128 84.288 39.144C84.608 37.8 84.48 37.224 83.072 36.584C82.752 36.456 82.496 36.392 82.24 36.392C81.728 36.392 81.28 36.584 80.768 37.096C78.784 39.016 77.056 41.448 75.52 43.752C73.216 47.08 71.232 50.472 69.184 53.864C68.8 54.632 68.288 55.336 67.84 56.04C67.712 56.168 67.584 56.296 67.456 56.296C67.456 56.296 67.392 56.296 67.328 56.232C67.264 56.232 67.2 56.04 67.264 55.912C67.904 51.304 69.312 44.776 72 40.872C72.576 40.04 72.64 39.912 71.872 39.528C71.552 39.336 71.04 39.08 70.656 39.08C70.272 39.08 69.952 39.272 69.76 39.656C66.624 45.288 65.216 50.728 64.512 57.128C64.448 57.576 64.512 58.024 64.576 58.408C64.768 59.368 65.664 59.944 66.624 59.944C68.224 59.944 69.184 58.536 70.016 57.384C70.912 55.976 71.744 54.504 72.64 53.096C73.664 51.304 79.296 41.832 80.896 41C81.216 40.808 81.216 41.448 80.576 43.624C79.552 47.4 78.592 51.56 78.592 55.528C78.592 56.808 79.424 57.448 80.64 57.448C81.088 57.448 81.472 57.32 81.856 56.936C83.52 54.76 85.056 52.584 86.592 50.344C87.552 49 92.544 42.216 93.824 42.216C93.504 43.816 92.8 45.416 92.288 47.016C90.688 51.816 89.536 56.68 89.152 61.544C89.088 62.952 89.152 64.36 89.536 65.704C89.92 66.984 91.136 67.624 92.416 67.624C94.4 67.624 96.256 65.768 97.536 64.488C99.328 62.504 101.056 60.52 102.72 58.408C104.32 56.424 105.92 54.44 107.712 52.52C107.904 52.264 108.16 52.008 108.352 51.752C108.608 51.432 108.608 51.176 108.352 50.984C107.904 50.536 107.52 50.344 107.072 50.344C106.56 50.344 106.112 50.664 105.536 51.304C104.128 52.904 102.784 54.504 101.376 56.104C99.712 58.088 98.112 60.072 96.448 62.056C95.872 62.696 93.056 65.768 92.288 65.768C92.096 65.768 91.904 65.64 91.84 65.448C91.584 64.168 91.584 62.824 91.712 61.48C92.48 54.12 94.656 47.528 97.152 40.616C97.536 39.528 96.896 38.952 96.128 38.44C95.808 38.248 95.424 38.12 95.04 38.12C94.592 38.12 94.144 38.248 93.696 38.696C89.088 42.536 85.568 47.4 82.176 52.328C82.048 52.52 81.92 52.84 81.6 52.84H81.472C81.216 52.776 81.344 52.392 81.408 52.2ZM81.984 30.568C80.128 30.888 78.272 31.208 76.352 31.208C75.648 31.144 75.136 31.016 74.944 30.376C74.816 30.056 74.624 29.736 74.368 29.48C74.304 29.416 74.048 29.288 73.92 29.352C73.6 29.416 73.536 29.736 73.536 29.928C73.536 32.616 75.776 33.512 78.016 33.512C80.064 33.384 81.984 33.064 83.968 32.744C86.336 32.36 88.64 31.976 91.008 31.592C91.648 31.528 92.288 31.464 92.928 31.464C93.44 31.464 94.016 31.528 94.528 31.592C95.296 31.656 95.872 31.912 95.872 32.872C95.872 33.448 96.064 33.96 96.448 34.28C96.512 34.344 96.704 34.344 96.768 34.344C96.896 34.28 97.024 34.152 97.024 34.088C97.216 33.32 97.088 32.616 96.96 31.912C96.576 29.224 94.464 29.096 92.288 29.096C91.008 29.096 89.728 29.224 88.448 29.416C86.272 29.736 84.16 30.184 81.984 30.568ZM136.421 49.96C133.541 49.96 128.037 52.712 125.477 53.992C125.157 54.12 124.901 54.376 124.581 54.376H124.389C124.197 54.056 124.453 53.8 124.581 53.48C124.965 52.648 125.413 51.816 125.797 50.984C126.565 48.872 127.205 46.76 127.205 44.648C127.141 42.28 125.541 40.744 123.301 40.744C117.029 40.744 110.309 53.16 107.877 58.664C107.685 59.112 107.557 59.624 107.045 59.944C106.789 59.496 106.981 59.048 107.109 58.664C108.453 52.264 109.925 45.928 111.781 39.656C112.293 37.992 112.741 36.264 113.189 34.6C113.381 33.704 113.317 33.576 112.549 33.192C112.421 33.128 112.229 33.064 112.037 33C111.909 32.936 111.781 32.936 111.717 32.936C111.269 32.936 110.949 33.192 110.757 33.768C107.429 44.52 104.677 55.336 103.077 66.408C102.565 70.12 102.501 73.768 102.309 77.416C102.309 77.992 102.629 78.312 103.141 78.376C103.269 78.44 103.525 78.44 103.717 78.44C104.485 78.44 105.125 78.184 105.125 77.288C105.189 76.072 105.381 74.792 105.701 73.576C108.133 63.72 111.845 53.544 118.757 45.928C119.845 44.712 122.469 42.216 124.133 42.216C124.581 42.216 124.773 42.408 124.901 42.792C125.029 43.368 125.029 44.008 124.901 44.584C124.069 50.536 119.845 57.704 115.173 61.288C114.597 61.672 114.149 62.184 113.637 62.632C113.317 62.952 113.381 63.4 113.701 63.592C114.085 63.848 114.469 63.976 114.917 63.976C115.365 63.976 115.813 63.848 116.325 63.464C117.029 62.888 117.797 62.248 118.437 61.608C122.789 57.32 128.805 54.504 134.437 52.392C135.333 52.008 136.293 51.88 137.253 51.624C137.637 51.56 138.021 51.688 138.341 51.304C138.469 51.048 138.213 50.664 137.701 50.344C137.317 50.152 136.869 49.96 136.421 49.96ZM136.264 51.368C136.648 52.008 136.584 52.648 136.328 53.416C135.944 54.568 135.752 55.656 135.688 56.808C135.495 59.368 136.136 61.608 137.799 63.336C138.888 64.424 140.232 65 141.704 65C145.992 65 149.256 60.584 151.304 57.192C151.56 56.808 151.88 56.488 152.392 56.424C156.168 55.528 159.624 53.672 162.76 51.432C163.4 50.984 163.4 50.6 162.888 50.28C162.312 49.896 161.928 49.768 161.608 49.768C161.224 49.768 160.84 50.024 160.2 50.472C158.984 51.304 154.696 54.12 153.352 54.12C153.096 54.12 152.968 53.864 153.16 53.48C154.056 51.304 154.76 49 155.016 46.632C155.528 41.256 151.496 36.904 146.056 36.904C142.792 36.904 140.04 38.376 137.928 40.936C135.559 43.88 134.471 48.616 136.264 51.368ZM138.568 44.904C140.168 41.256 143.368 38.376 147.528 38.376C149.384 38.376 150.728 39.208 151.688 41C152.712 42.92 152.776 45.096 152.328 47.4C152.072 48.808 150.408 55.016 148.808 55.336C147.912 55.528 147.08 55.592 146.248 55.592C144.072 55.592 141.384 54.888 139.784 53.352C139.4 53.032 139.4 52.648 139.592 52.2C140.296 50.728 141.064 49.384 142.152 48.104C142.344 47.848 142.664 47.656 142.792 47.336C143.112 46.888 144.072 46.568 143.496 45.992C142.984 45.544 142.536 45.288 142.088 45.288C141 45.288 139.464 47.464 138.888 48.232C138.76 48.488 138.632 48.744 138.44 48.936C138.312 49 138.12 49.064 137.928 49.064C137.864 49.128 137.799 48.936 137.799 48.808C137.736 47.464 137.992 46.184 138.568 44.904ZM138.632 55.016C138.696 54.632 139.016 54.632 139.336 54.632C139.464 54.696 139.592 54.76 139.656 54.824C141.96 56.232 144.584 56.936 147.464 57.064C147.72 57.064 147.912 57.128 148.168 57.192C147.272 59.176 143.752 63.784 141.32 63.784C140.232 63.784 139.144 61.864 138.824 60.968C138.184 59.112 138.056 57.128 138.632 55.016ZM177.283 52.2C177.603 49.832 178.051 47.464 178.691 45.096C179.203 43.112 179.715 41.128 180.163 39.144C180.483 37.8 180.355 37.224 178.947 36.584C178.627 36.456 178.371 36.392 178.115 36.392C177.603 36.392 177.155 36.584 176.643 37.096C174.659 39.016 172.931 41.448 171.395 43.752C169.091 47.08 167.107 50.472 165.059 53.864C164.675 54.632 164.163 55.336 163.715 56.04C163.587 56.168 163.459 56.296 163.331 56.296C163.331 56.296 163.267 56.296 163.203 56.232C163.139 56.232 163.075 56.04 163.139 55.912C163.779 51.304 165.187 44.776 167.875 40.872C168.451 40.04 168.515 39.912 167.747 39.528C167.427 39.336 166.915 39.08 166.531 39.08C166.147 39.08 165.827 39.272 165.635 39.656C162.499 45.288 161.091 50.728 160.387 57.128C160.323 57.576 160.387 58.024 160.451 58.408C160.643 59.368 161.539 59.944 162.499 59.944C164.099 59.944 165.059 58.536 165.891 57.384C166.787 55.976 167.619 54.504 168.515 53.096C169.539 51.304 175.171 41.832 176.771 41C177.091 40.808 177.091 41.448 176.451 43.624C175.427 47.4 174.467 51.56 174.467 55.528C174.467 56.808 175.299 57.448 176.515 57.448C176.963 57.448 177.347 57.32 177.731 56.936C179.395 54.76 180.931 52.584 182.467 50.344C183.427 49 188.419 42.216 189.699 42.216C189.379 43.816 188.675 45.416 188.163 47.016C186.563 51.816 185.411 56.68 185.027 61.544C184.963 62.952 185.027 64.36 185.411 65.704C185.795 66.984 187.011 67.624 188.291 67.624C190.275 67.624 192.131 65.768 193.411 64.488C195.203 62.504 196.931 60.52 198.595 58.408C200.195 56.424 201.795 54.44 203.587 52.52C203.779 52.264 204.035 52.008 204.227 51.752C204.483 51.432 204.483 51.176 204.227 50.984C203.779 50.536 203.395 50.344 202.947 50.344C202.435 50.344 201.987 50.664 201.411 51.304C200.003 52.904 198.659 54.504 197.251 56.104C195.587 58.088 193.987 60.072 192.323 62.056C191.747 62.696 188.931 65.768 188.163 65.768C187.971 65.768 187.779 65.64 187.715 65.448C187.459 64.168 187.459 62.824 187.587 61.48C188.355 54.12 190.531 47.528 193.027 40.616C193.411 39.528 192.771 38.952 192.003 38.44C191.683 38.248 191.299 38.12 190.915 38.12C190.467 38.12 190.019 38.248 189.571 38.696C184.963 42.536 181.443 47.4 178.051 52.328C177.923 52.52 177.795 52.84 177.475 52.84H177.347C177.091 52.776 177.219 52.392 177.283 52.2ZM177.859 30.568C176.003 30.888 174.147 31.208 172.227 31.208C171.523 31.144 171.011 31.016 170.819 30.376C170.691 30.056 170.499 29.736 170.243 29.48C170.179 29.416 169.923 29.288 169.795 29.352C169.475 29.416 169.411 29.736 169.411 29.928C169.411 32.616 171.651 33.512 173.891 33.512C175.939 33.384 177.859 33.064 179.843 32.744C182.211 32.36 184.515 31.976 186.883 31.592C187.523 31.528 188.163 31.464 188.803 31.464C189.315 31.464 189.891 31.528 190.403 31.592C191.171 31.656 191.747 31.912 191.747 32.872C191.747 33.448 191.939 33.96 192.323 34.28C192.387 34.344 192.579 34.344 192.643 34.344C192.771 34.28 192.899 34.152 192.899 34.088C193.091 33.32 192.963 32.616 192.835 31.912C192.451 29.224 190.339 29.096 188.163 29.096C186.883 29.096 185.603 29.224 184.323 29.416C182.147 29.736 180.035 30.184 177.859 30.568ZM200.808 87.528C200.808 88.68 201.64 89 202.664 89C209.256 89 215.144 72.36 216.936 66.92C217.384 65.704 217.96 64.808 218.856 63.912C223.464 59.432 228.328 55.272 233.896 52.008C234.28 51.752 234.856 51.624 235.112 51.048C234.344 50.408 233.96 50.088 233.448 50.088C231.464 50.088 222.44 57.512 220.456 59.304L219.688 59.88C219.624 59.944 219.432 59.816 219.432 59.752C219.432 59.432 219.496 59.112 219.56 58.856C220.392 55.464 221.288 52.136 222.056 48.744C222.44 47.144 222.632 45.48 222.888 43.88C223.016 43.176 223.016 42.408 222.952 41.64C222.952 40.616 221.608 39.72 220.584 39.72C219.624 39.72 218.344 41.128 217.768 41.832C216.552 43.304 215.336 44.712 214.184 46.248C212.264 48.68 210.472 51.176 208.552 53.672C207.528 55.016 206.44 56.36 205.416 57.64C205.224 57.896 205.032 58.088 204.712 58.088C204.584 58.088 204.52 58.024 204.456 58.024C204.456 52.456 205.416 46.952 208.296 41.512C207.976 41.32 207.784 41.128 207.528 40.936C207.272 40.808 206.888 40.68 206.504 40.68C206.12 40.68 205.8 40.872 205.608 41.256C203.368 45.352 202.28 49.96 201.896 54.568C201.768 55.912 201.64 57.32 201.832 58.6C202.088 59.752 202.984 60.456 204.136 60.456C205.992 60.456 207.72 58.664 208.808 57.256C210.088 55.656 211.304 54.12 212.52 52.456C214.504 49.832 216.488 47.144 218.6 44.584C219.048 44.136 219.432 43.688 219.88 43.24C219.944 43.176 220.072 43.176 220.2 43.176C220.264 43.176 220.392 43.368 220.392 43.432C219.304 50.088 217.512 56.616 215.528 63.016C215.272 63.912 214.824 64.808 214.12 65.576C210.088 69.928 200.744 81.512 200.808 87.528ZM204.008 84.328C205.8 79.848 208.744 75.944 211.688 72.168C211.88 71.912 212.072 71.72 212.328 71.72C212.456 71.912 212.392 72.168 212.328 72.424C210.28 77.608 208.104 82.856 204.136 86.888C204.072 86.952 204.008 87.016 203.88 87.016C203.752 87.016 203.56 86.888 203.56 86.76C203.496 85.928 203.688 85.16 204.008 84.328ZM262.734 49.96C259.854 49.96 254.35 52.712 251.79 53.992C251.47 54.12 251.214 54.376 250.894 54.376H250.702C250.51 54.056 250.766 53.8 250.894 53.48C251.278 52.648 251.726 51.816 252.11 50.984C252.878 48.872 253.518 46.76 253.518 44.648C253.454 42.28 251.854 40.744 249.614 40.744C243.342 40.744 236.622 53.16 234.19 58.664C233.998 59.112 233.87 59.624 233.358 59.944C233.102 59.496 233.294 59.048 233.422 58.664C234.766 52.264 236.238 45.928 238.094 39.656C238.606 37.992 239.054 36.264 239.502 34.6C239.694 33.704 239.63 33.576 238.862 33.192C238.734 33.128 238.542 33.064 238.35 33C238.222 32.936 238.094 32.936 238.03 32.936C237.582 32.936 237.262 33.192 237.07 33.768C233.742 44.52 230.989 55.336 229.389 66.408C228.877 70.12 228.813 73.768 228.621 77.416C228.621 77.992 228.941 78.312 229.453 78.376C229.581 78.44 229.837 78.44 230.029 78.44C230.797 78.44 231.438 78.184 231.438 77.288C231.502 76.072 231.694 74.792 232.014 73.576C234.446 63.72 238.158 53.544 245.07 45.928C246.158 44.712 248.782 42.216 250.446 42.216C250.894 42.216 251.086 42.408 251.214 42.792C251.342 43.368 251.342 44.008 251.214 44.584C250.382 50.536 246.158 57.704 241.486 61.288C240.91 61.672 240.462 62.184 239.95 62.632C239.63 62.952 239.694 63.4 240.014 63.592C240.398 63.848 240.782 63.976 241.23 63.976C241.678 63.976 242.126 63.848 242.638 63.464C243.342 62.888 244.11 62.248 244.75 61.608C249.102 57.32 255.118 54.504 260.75 52.392C261.646 52.008 262.606 51.88 263.566 51.624C263.95 51.56 264.333 51.688 264.654 51.304C264.782 51.048 264.526 50.664 264.014 50.344C263.63 50.152 263.182 49.96 262.734 49.96Z" fill="black"/>
<path d="M52.9993 59.0843L47.6281 78.8136" stroke="black" stroke-width="2"/>
<path d="M42.9998 78.5801C42.9998 78.5801 44.9854 78.1445 47.6294 78.8132C50.2734 79.4819 51.8133 80.809 51.8133 80.809" stroke="black" stroke-width="2"/>
<path d="M62.416 45.2267C61.968 45.6698 61.2457 45.6659 60.8026 45.2179C60.3595 44.77 60.3634 44.0476 60.8114 43.6045C61.2594 43.1615 62.9655 43.0785 63.2359 42.8111C62.9655 43.0785 62.8639 44.7837 62.416 45.2267Z" fill="#DE4444"/>
<path d="M66 51.1237C66 52.3619 60.2839 57.1084 59.1075 58.5309C58.2955 59.5129 57.2033 60.6089 55.6603 61C52.6136 60.0869 55.2045 60.47 52.6136 60.47C49.1664 60.47 47.0423 56.32 47.0423 53.5928C47.0423 50.8655 46.4289 42.8944 49.8749 44.1289C51.0442 44.1289 53.3221 49.0671 56.7693 47.8325C61.9402 52.7707 66 49.5131 66 51.1237Z" fill="#DE4444"/>
<path d="M3.264 65.576C3.456 65.576 3.648 65.64 3.904 65.64C6.592 65.64 9.728 62.76 11.584 60.904C14.464 58.024 17.152 55.016 19.904 51.944C20.16 51.752 20.352 51.432 20.544 51.176C20.608 50.984 20.544 50.792 20.416 50.728C20.032 50.472 19.648 50.344 19.328 50.344C18.816 50.344 18.304 50.6 17.728 51.176C14.976 54.12 12.16 57.128 9.28 60.008C8.576 60.776 4.992 64.04 4.032 64.04C3.776 64.04 3.648 63.848 3.584 63.528V62.632C3.84 57.768 7.68 50.792 10.048 46.76C12.544 42.536 15.04 38.376 17.536 34.152C19.264 31.208 21.312 27.048 21.824 23.656C21.952 22.824 21.952 22.056 21.504 21.416C20.544 20.136 19.264 19.304 17.472 19.24C12.16 19.24 4.096 26.024 1.664 30.888C0.96 32.232 1.216 33 2.496 33.512C2.688 33.64 2.944 33.768 3.2 33.768C3.328 33.768 3.456 33.704 3.584 33.64C4.096 33.384 3.712 33 3.776 32.68C3.776 32.104 4.096 31.592 4.48 31.08C7.424 26.792 12.864 21.8 18.24 20.904C18.368 20.84 18.496 20.84 18.624 20.84C19.328 20.84 19.648 21.224 19.584 21.992C19.392 25.32 17.344 29.352 15.68 32.168C13.248 36.456 10.688 40.68 8.192 44.968C5.248 49.896 2.24 55.144 1.088 60.776C1.024 61.224 0.896 61.928 0.896 62.632C0.896 64.36 1.6 65.256 3.264 65.576Z" fill="black"/>
<g clip-path="url(#clip0_0_183)">
<path d="M59.0054 40.2895C58.965 39.5829 58.7619 38.896 58.4118 38.2821C58.0617 37.6681 57.574 37.1436 56.9864 36.7491C54.2618 35.5347 50.3036 40.2785 49.8541 40.8163C48.5851 42.36 47.6539 44.1499 47.1209 46.0703C46.5878 47.9907 46.4648 49.9987 46.7597 51.9643C47.1181 54.7667 48.5683 57.3096 50.7975 59.0452C51.5793 59.6535 52.4757 60.1001 53.4346 60.3588C54.3934 60.6174 55.3956 60.6831 56.3826 60.552C57.7516 60.2566 58.9975 59.5461 59.9488 58.5183C63.2457 54.7475 65 53 67.5 47.5" stroke="black" stroke-width="2" stroke-miterlimit="10"/>
</g>
<defs>
<clipPath id="clip0_0_183">
<rect width="27" height="27.8526" fill="white" transform="translate(36 42.375) rotate(-29.6941)"/>
</clipPath>
</defs>
</svg>
